<?xml version="1.0"?>
<svg xmlns="http://www.w3.org/2000/svg" id="Line_cutting_stroke_ex" data-name="Line cutting stroke ex" width="512" height="512" viewBox="0 0 512 512"><g><path d="M458,264H416V232a24,24,0,0,0-48,0v52a28.0314,28.0314,0,0,0,28,28h52v16.8628A58.15,58.15,0,0,0,438,328H368v16h70a42.0475,42.0475,0,0,1,42,42v52a42.0475,42.0475,0,0,1-42,42H344v-4a12.0134,12.0134,0,0,1,12-12h36a8,8,0,0,0,8-8V430a22.0248,22.0248,0,0,1,22-22h42V392H422a38.0433,38.0433,0,0,0-38,38v18H356a28.0314,28.0314,0,0,0-28,28v4H240v-4c0-7.29,6.28-12,16-12h48c5.8848,0,11.9727-3.1475,16.7021-8.6348A29.7319,29.7319,0,0,0,328,436V416H312v20c0,7.1543-6.0059,12-8,12H280.5967l10.1052-48h12.5769a47.7378,47.7378,0,0,0,42.9321-26.5332l.7212-1.4424A48.2439,48.2439,0,0,0,352,350.5576V296a7.9982,7.9982,0,0,0-1.3438-4.4375l-16-24a7.9995,7.9995,0,0,0-13.3124,0L307.7188,288h-4.2156A64.5413,64.5413,0,0,0,304,280a63.71,63.71,0,0,0-27.9517-52.9014,48.0511,48.0511,0,0,0-15.8969-57.9868A17.9121,17.9121,0,0,0,264,158V138a17.9969,17.9969,0,0,0-8-14.96V84a68.0773,68.0773,0,0,0-68-68H132A68.1339,68.1339,0,0,0,64.1484,79.4746l15.9659,1.0508A52.0939,52.0939,0,0,1,132,32h56a52.0589,52.0589,0,0,1,52,52v36h-8a8,8,0,0,0-8-8H212.5293L190.86,75.8838a8,8,0,0,0-13.72,0L155.4707,112H96a8,8,0,0,0-8,8H80V96H64v27.04A17.9969,17.9969,0,0,0,56,138v20a17.9106,17.9106,0,0,0,3.8488,11.1118,48.0509,48.0509,0,0,0-15.8971,57.9868A64.042,64.042,0,0,0,25.69,313.873,38.0827,38.0827,0,0,0,16,339.1953V468a28.0314,28.0314,0,0,0,28,28H208V480H176V440h32a47.56,47.56,0,0,1,20.5674,4.6152l6.8652-14.4531A63.4469,63.4469,0,0,0,208,424H88V392H72v40a8,8,0,0,0,8,8h80v40H44a12.0134,12.0134,0,0,1-12-12V339.1953A22.0645,22.0645,0,0,1,44.7808,319.22l60.0318-27.7068a7.9907,7.9907,0,0,0,1.5307,2.1443l5.5737,5.5733a67.9987,67.9987,0,0,0,96.166,0l5.5737-5.5733a7.9929,7.9929,0,0,0,1.5307-2.1443l8.1266,3.7508,6.705-14.5274-18.6665-8.6152-.421.9123-15.7129-41.9011,15.9484-8.0757a37.8189,37.8189,0,0,0,20.833-33.9V176h9.5063a7.9919,7.9919,0,0,0,3.2906,2.6592,32.0191,32.0191,0,0,1,13.9038,46.9853,7.9993,7.9993,0,0,0,3.04,11.5469A47.8312,47.8312,0,0,1,288,280a48.4252,48.4252,0,0,1-.6633,8h-3.0555l-13.625-20.4375a7.9995,7.9995,0,0,0-13.3124,0l-16,24A7.9982,7.9982,0,0,0,240,296v54.5576a48.2439,48.2439,0,0,0,5.0679,21.4668l.7212,1.4424A47.722,47.722,0,0,0,274.78,397.9609L264.2454,448H256c-18.542,0-32,11.7754-32,28v12a8,8,0,0,0,8,8H438a58.0656,58.0656,0,0,0,58-58V302A38.0433,38.0433,0,0,0,458,264ZM88,160H74a2.0023,2.0023,0,0,1-2-2V138a2.0023,2.0023,0,0,1,2-2H88ZM38.6658,304.42A48.0359,48.0359,0,0,1,58.26,237.1914a7.9993,7.9993,0,0,0,3.04-11.5469,32.0191,32.0191,0,0,1,13.9038-46.9853A7.9919,7.9919,0,0,0,78.4937,176H88v13.459a37.7925,37.7925,0,0,0,21.0059,33.9883l15.7115,7.8557-15.6489,41.73-.421-.9123Zm160.0349-18.4348L196.77,287.916a51.9973,51.9973,0,0,1-73.539,0l-1.9312-1.9306,17.8079-47.4874,8.3127,4.1563a28.1153,28.1153,0,0,0,25.1724-.0645l8.2654-4.1855ZM216,189.1562a21.8959,21.8959,0,0,1-12.0615,19.627l-38.5747,19.5332a12.0577,12.0577,0,0,1-10.7876.0274l-38.4151-19.2071A21.8816,21.8816,0,0,1,104,189.459V128h56a8.0007,8.0007,0,0,0,6.86-3.8838L184,95.5488l17.14,28.5674A8.0007,8.0007,0,0,0,208,128h8ZM232,136h14a2.0023,2.0023,0,0,1,2,2v20a2.0023,2.0023,0,0,1-2,2H232Zm28.1,230.3105-.7212-1.4423A32.1661,32.1661,0,0,1,256,350.5576V298.4219l8-12,9.3438,14.0156A7.9992,7.9992,0,0,0,280,304h32a7.9992,7.9992,0,0,0,6.6562-3.5625L328,286.4219l8,12v52.1357a32.1661,32.1661,0,0,1-3.3784,14.3106l-.7212,1.4423A31.8258,31.8258,0,0,1,303.2788,384H288.7212A31.8258,31.8258,0,0,1,260.1,366.3105Zm203.9-32.15V304a8,8,0,0,0-8-8H396a12.0134,12.0134,0,0,1-12-12V232a8,8,0,0,1,16,0v40a8,8,0,0,0,8,8h50a22.0248,22.0248,0,0,1,22,22v44.0393A58.3223,58.3223,0,0,0,464,334.1606Z"/><rect x="120" y="144" width="16" height="16"/><rect x="184" y="144" width="16" height="16"/><path d="M160,196c-4.9629,0-8-2.59-8-4H136c0,11.2148,10.542,20,24,20s24-8.7852,24-20H168C168,193.41,164.9629,196,160,196Z"/><rect x="272" y="328" width="16" height="16"/><rect x="304" y="328" width="16" height="16"/><path d="M334.3433,197.6572a8,8,0,0,0,11.3134,0l38.1421-38.1416a28,28,0,1,0-39.5981-39.5986l-4.2007,4.2-4.2012-4.2012a28,28,0,0,0-39.5976,39.6Zm-26.8287-66.4267a12.0009,12.0009,0,0,1,16.97-.001l9.8579,9.8584a7.9995,7.9995,0,0,0,11.3144,0l9.8574-9.8574a12,12,0,1,1,16.9708,16.9707L340,180.6865l-32.4854-32.4853A12.0139,12.0139,0,0,1,307.5146,131.2305Z"/><path d="M425.3433,121.87a8,8,0,0,0,11.3134,0l26.6065-26.6074A23,23,0,0,0,431,62.4766a23,23,0,0,0-32.2632,32.7861ZM410.05,74.05a7.0086,7.0086,0,0,1,9.8989-.001l5.3936,5.3946a7.9995,7.9995,0,0,0,11.3144,0L442.05,74.05a7,7,0,1,1,9.8994,9.8984L431,104.8994,410.05,83.9482a6.9986,6.9986,0,0,1,0-9.8984Z"/></g></svg>
